<svg width="22" height="24" viewBox="0 0 22 24" fill="none" xmlns="http://www.w3.org/2000/svg">
<path fill-rule="evenodd" clip-rule="evenodd" d="M2.28905 1.039C-4.91206 4.79401 6.52312 27.0211 13.8902 23.654C14.0112 23.599 15.9923 22.625 16.0003 22.621L12.4792 15.826C12.4722 15.83 10.5062 16.796 10.4152 16.837C8.17614 17.923 3.61707 9.01702 5.80611 7.84302L7.88814 6.81701L4.39608 0L2.28905 1.039ZM15.2693 11.115L12.3522 10.245L13.2212 7.32901C13.9672 7.55101 14.6302 8.05902 15.0292 8.79802C15.4293 9.53602 15.4923 10.368 15.2693 11.115ZM14.1562 4.18701C15.7073 4.64901 17.0823 5.70301 17.9123 7.23801C18.7433 8.77402 18.8723 10.501 18.4103 12.051L16.6153 11.516C16.9403 10.425 16.8483 9.21002 16.2633 8.12902C15.6803 7.04801 14.7122 6.30701 13.6202 5.98301L14.1562 4.18701ZM20.8353 5.65601C19.5693 3.31201 17.4713 1.705 15.1062 1L14.5572 2.84101C16.4523 3.40501 18.1323 4.69301 19.1483 6.57001C20.1623 8.44602 20.3203 10.557 19.7563 12.452L21.5963 13C22.3014 10.634 22.1044 7.99902 20.8353 5.65601Z" fill="#F5D3AB"/>
</svg>
